<?xml version="1.0" encoding="UTF-8"?> <!-- Generator: Adobe Illustrator 24.0.1, SVG Export Plug-In . SVG Version: 6.00 Build 0) --> <svg xmlns="http://www.w3.org/2000/svg" xmlns:xlink="http://www.w3.org/1999/xlink" id="Layer_1" x="0px" y="0px" viewBox="0 0 495 123.7" style="enable-background:new 0 0 495 123.7;" xml:space="preserve"> <style type="text/css"> .st0{fill:#4F0D0D;} </style> <g> <g> <g> <g> <g> <path class="st0" d="M51.5,103.5c-11.1,0-22.2-4.2-30.6-12.6c-17-17-16.7-45,0.7-62.5C39,11.1,67,10.8,84,27.8l44.2,42.3 c6,6,15.9,5.9,22-0.3c6.1-6.1,6.3-16,0.3-22c-2.9-2.9-6.8-4.5-10.9-4.4c-4.2,0-8.1,1.7-11.1,4.7l-2.3-2.3 c3.6-3.6,8.3-5.6,13.4-5.7c5.1-0.1,9.8,1.9,13.3,5.4s5.4,8.3,5.4,13.3c-0.1,5-2.1,9.8-5.7,13.4c-7.4,7.4-19.4,7.6-26.7,0.3 L81.7,30.2C66,14.4,40,14.7,23.9,30.9C7.8,47,7.5,72.9,23.2,88.6C39,104.4,64.9,104.1,81,87.9l2.3,2.3 C74.5,99.1,62.9,103.5,51.5,103.5z"></path> </g> </g> <g> <g> <path class="st0" d="M136,103.5c-11.1,0-22.2-4.2-30.6-12.6L63.6,47.8c-6-6-15.8-5.8-22,0.3c-6.1,6.1-6.3,16-0.3,22 s15.9,5.9,22-0.3l2.3,2.3c-7.4,7.4-19.4,7.6-26.7,0.3c-7.3-7.3-7.1-19.2,0.3-26.7c7.4-7.4,19.4-7.6,26.7-0.3l41.8,43.2 c15.7,15.7,41.6,15.4,57.8-0.7c7.8-7.8,12.2-18.1,12.3-29.1c0.1-10.9-4-21.1-11.6-28.7s-17.8-11.7-28.7-11.6 s-21.2,4.5-29.1,12.3l-2.3-2.3c8.4-8.4,19.6-13.1,31.4-13.3c11.9-0.1,22.8,4.3,31.1,12.6s12.7,19.3,12.6,31.1 c-0.1,11.8-4.9,22.9-13.3,31.4C159.1,99.1,147.5,103.5,136,103.5z"></path> </g> </g> <g> <g> <rect x="88.7" y="60.9" transform="matrix(0.712 -0.7022 0.7022 0.712 -11.8399 96.3191)" class="st0" width="45.6" height="3.3"></rect> </g> </g> <g> <g> <rect x="58.2" y="54.2" transform="matrix(0.7206 -0.6933 0.6933 0.7206 -16.2926 71.2259)" class="st0" width="44.1" height="3.3"></rect> </g> </g> </g> <g> <g> <path class="st0" d="M305.8,25.5v8.2h-1.4c-2.2-9.6-12-9.5-14.5-9.5h-6.2c-2,0-3.7,1.7-3.7,3.7v56.4c0,6.2,1.8,6.2,6,6.2v0.9 h-17.4v-0.9c4.2,0,6,0,6-6.2V27.9c0-2-1.7-3.7-3.7-3.7h-6.2c-5.5,0-13-0.1-14.6,9.5H249v-8.2c0-1.1,0.9-2,2-2h52.8 C304.9,23.4,305.8,24.3,305.8,25.5z"></path> </g> <g> <path class="st0" d="M337,52.7c-1.9,0.8-4.2-0.1-5.1-2c-0.3-0.9-0.3-1.8,0-2.7c0.4-0.9-1.1-0.8-3.1,0.2c-5.1,2.4-8.2,7.5-8.2,13 v23.5c0,5.3,0.5,4.4,4.1,5.3v0.9h-13.1V90c3.8-1.1,4-0.4,4-5.3V52.5c0-3.4-0.8-4.7-5-4.7V47l7.9-1.3c1.1-0.2,2.2,0.7,2.2,1.8 v7.1c2.1-5,9.4-9.8,15.2-9.2c1.4,0.2,2.6,1.1,3.3,2.4C339.9,49.8,339,51.9,337,52.7z"></path> </g> <g> <path class="st0" d="M385.6,67.7h-30.4c0,16.5,7,22.1,16.1,22.1c6.7,0,12.8-5.1,14.1-10.1l0.6,0.1c-0.5,4.1-5.7,12-16,12 c-11.8,0-20.7-8.4-20.7-22.6c0-15,9.2-23.7,20.2-23.7c8.5,0,17.2,6.4,17.9,20.5C387.4,66.9,386.6,67.7,385.6,67.7z M382.3,65 c-0.6-14.5-9-18.7-12.9-18.7c-5.6,0-14.3,5.5-14.3,20.5h25.4C381.6,66.7,382.3,65.9,382.3,65z"></path> </g> <g> <path class="st0" d="M440.5,90.1v0.8h-13v-0.8c3.8-1.1,4-0.5,4-5.4V61.9c0-8.5-4.2-13.9-12.4-13.9c-4.1,0-7.2,2.3-9.3,4.7 c-1.7,2-2.6,4.6-2.6,7.2v24.7c0,5.3,0.5,4.4,4.1,5.3v0.9h-13.1V90c3.8-1.1,4-0.4,4-5.3v-32c0-3.4-0.8-4.8-5-4.8V47l8-1.3 c1.1-0.2,2,0.6,2,1.6v7.9c1.9-5.3,7.9-9.8,14.3-9.8c8.4,0,15.1,4.5,15.1,16.1v23.2C436.4,90,437,89.2,440.5,90.1z"></path> </g> <g> <path class="st0" d="M481.2,91.6c-1.4-0.2-3.7-1.1-4.9-3.9c-0.5-1.2-2.1-1.5-3-0.5c-2.5,2.8-6.9,4.5-11.8,4.5 c0,0-11.3,0.1-11.3-10c0-8.5,8.1-11.9,24-16c0.8-0.2,1.3-0.9,1.3-1.6v-3.9c0-9.8-4.5-16-13.6-12.3c-4.6,2.1-5.4,4.2-4.9,4.3 c0.9,0.2,1.7,0.5,2.4,1.3c1.3,1.5,1.1,3.7-0.4,5s-3.7,1.2-5-0.4c-0.9-1.1-1.2-2.5-0.7-3.7s2.5-4.4,7.8-7.1 c4.1-1.9,8.8-1.8,8.8-1.8c8.7,0,11,7.8,11,19.3v18.4c0,4.3,0.5,6.5,1,7.6C482.1,91.2,481.7,91.7,481.2,91.6z M475.5,65.7 c-0.1,0.3-0.8,0.7-1.5,0.9c-0.5,0.1-1,0.3-1.5,0.4c-0.1,0-0.1,0-0.1,0c-11.3,3-17.1,6.9-17.1,13.1c0,5.6,3.6,8.8,9.3,8.8 c6.6,0,9.4-4.1,10.7-6.5c0.2-0.3,0.3-0.7,0.3-1.1L475.5,65.7L475.5,65.7z"></path> </g> </g> <g> <rect x="215.9" y="40.8" class="st0" width="1" height="41.7"></rect> </g> </g> </g> </svg> 